HIERARCHY
ROOT Hips
{
	OFFSET 0.00 0.00 0.00
	CHANNELS 6 Xposition Yposition Zposition Xrotation Yrotation Zrotation
	JOINT Spine
	{
		OFFSET 0.00000 1.70439 2.55658
		CHANNELS 3 Xrotation Yrotation Zrotation
		JOINT Spine1
		{
			OFFSET 0.00000 0.59193 3.35699
			CHANNELS 3 Xrotation Yrotation Zrotation
			JOINT Spine2
			{
				OFFSET 0.00000 0.29710 3.39581
				CHANNELS 3 Xrotation Yrotation Zrotation
				JOINT Spine3
				{
					OFFSET 0.00000 0.00000 3.40878
					CHANNELS 3 Xrotation Yrotation Zrotation
					JOINT Neck
					{
						OFFSET 0.00000 -1.27828 8.94804
						CHANNELS 3 Xrotation Yrotation Zrotation
						JOINT Head
						{
							OFFSET 0.00000 -0.81390 4.61586
							CHANNELS 3 Xrotation Yrotation Zrotation
							End Site
							{
								OFFSET 0.00000 0.00001 5.51796
							}
						}
					}
					JOINT RightShoulder
					{
						OFFSET -1.18875 -1.98124 6.41925
						CHANNELS 3 Xrotation Yrotation Zrotation
						JOINT RightArm
						{
							OFFSET -5.90412 0.00000 0.00000
							CHANNELS 3 Xrotation Yrotation Zrotation
							JOINT RightForeArm
							{
								OFFSET -11.94674 0.00000 0.00000
								CHANNELS 3 Xrotation Yrotation Zrotation
								JOINT RightHand
								{
									OFFSET -10.17720 0.00000 0.00000
									CHANNELS 3 Xrotation Yrotation Zrotation
									JOINT RightHandEnd
									{
										OFFSET -2.84518 0.00000 0.00000
										CHANNELS 3 Xrotation Yrotation Zrotation
										End Site
										{
											OFFSET -2.84518 0.00000 0.00000
										}
									}
									JOINT RightHandThumb1
									{
										OFFSET -1.13807 -1.89679 -0.75871
										CHANNELS 3 Yrotation Xrotation Zrotation
										End Site
										{
											OFFSET -2.74823 -0.73639 0.00000
										}
									}
								}
							}
						}
					}
					JOINT LeftShoulder
					{
						OFFSET 1.18875 -1.98124 6.41925
						CHANNELS 3 Xrotation Yrotation Zrotation
						JOINT LeftArm
						{
							OFFSET 5.90412 0.00000 0.00000
							CHANNELS 3 Xrotation Yrotation Zrotation
							JOINT LeftForeArm
							{
								OFFSET 11.94674 0.00000 0.00000
								CHANNELS 3 Xrotation Yrotation Zrotation
								JOINT LeftHand
								{
									OFFSET 10.17720 0.00000 0.00000
									CHANNELS 3 Xrotation Yrotation Zrotation
									JOINT LeftHandEnd
									{
										OFFSET 2.84518 0.00000 0.00000
										CHANNELS 3 Xrotation Yrotation Zrotation
										End Site
										{
											OFFSET 2.84518 0.00000 0.00000
										}
									}
									JOINT LeftHandThumb1
									{
										OFFSET 1.13807 -1.89679 -0.75871
										CHANNELS 3 Yrotation Xrotation Zrotation
										End Site
										{
											OFFSET 2.74823 -0.73639 0.00000
										}
									}
								}
							}
						}
					}
				}
			}
		}
	}
	JOINT RightUpLeg
	{
		OFFSET -3.52662 0.00000 -1.03025
		CHANNELS 3 Xrotation Yrotation Zrotation
		JOINT RightLeg
		{
			OFFSET 0.00001 0.00000 -17.80159
			CHANNELS 3 Xrotation Yrotation Zrotation
			JOINT RightFoot
			{
				OFFSET 0.00001 0.00000 -16.85992
				CHANNELS 3 Xrotation Yrotation Zrotation
				JOINT RightToeBase
				{
					OFFSET 0.00000 -5.42953 -1.97619
					CHANNELS 3 Xrotation Yrotation Zrotation
					End Site
					{
						OFFSET 0.00000 -2.85300 -0.00000
					}
				}
			}
		}
	}
	JOINT LeftUpLeg
	{
		OFFSET 3.52662 0.00000 -1.03025
		CHANNELS 3 Xrotation Yrotation Zrotation
		JOINT LeftLeg
		{
			OFFSET 0.00001 0.00000 -17.80159
			CHANNELS 3 Xrotation Yrotation Zrotation
			JOINT LeftFoot
			{
				OFFSET 0.00001 0.00000 -16.85992
				CHANNELS 3 Xrotation Yrotation Zrotation
				JOINT LeftToeBase
				{
					OFFSET 0.00000 -5.42953 -1.97619
					CHANNELS 3 Xrotation Yrotation Zrotation
					End Site
					{
						OFFSET 0.00000 -2.85300 -0.00000
					}
				}
			}
		}
	}
}
MOTION
Frames: 6
Frame Time: 0.008342
 19.3901 0.6470 36.7013 1.4705 2.1031 -87.9407 4.4485 -1.7038 0.6527 2.0877 -0.2765 0.0518 4.3503 -2.1797 1.8029 1.3396 -0.3494 1.5322 -0.7409 1.0203 -2.7280 -7.4190 0.1671 -3.9828 20.9463 -18.9509 16.5325 -6.1148 -38.0597 20.2470 -0.0000 0.0001 55.2540 4.2821 15.3962 -8.3702 -0.0000 -0.0000 0.0000 -0.0000 -0.0000 0.0000 18.7034 10.6551 -13.4182 21.7709 42.5850 -29.8124 -0.0000 -0.0000 -38.9950 -15.1819 -13.6721 1.8875 0.0000 -0.0000 -0.0000 0.0000 -0.0000 -0.0000 -2.6418 11.2188 -16.4068 48.9638 0.0000 0.0000 -10.6710 -15.4108 -14.3551 -13.7578 0.0000 -0.0000 -24.3042 -3.7707 2.2131 25.8235 0.0000 0.0000 0.9739 7.9522 13.5282 -2.8629 0.0000 -0.0000
 19.6551 0.6970 36.6556 1.4892 1.9986 -88.0549 4.5140 -1.8991 0.7141 2.1147 -0.3057 0.0358 4.3630 -2.0561 1.8947 1.3751 -0.3393 1.5163 -0.4997 1.1698 -2.5893 -7.3030 0.2515 -3.9419 20.7906 -18.7783 16.4511 -6.2342 -38.0480 20.0544 -0.0000 0.0001 55.6796 4.2143 16.3764 -8.4320 -0.0000 0.0000 -0.0000 0.0000 -0.0000 -0.0000 18.5260 10.6984 -13.4251 21.0645 42.8049 -29.4816 -0.0000 -0.0000 -39.8204 -15.4043 -13.7986 1.6670 -0.0000 0.0000 -0.0000 0.0000 -0.0000 -0.0000 -2.1795 10.7013 -15.8900 47.7249 0.0000 0.0000 -11.3692 -16.0285 -14.0066 -15.7222 0.0000 -0.0000 -24.6726 -3.8970 2.1238 25.4609 0.0000 0.0000 1.5529 8.3567 13.4690 -3.0798 0.0000 -0.0000
 19.9344 0.7512 36.6103 1.5390 1.8698 -88.1341 4.5934 -2.1701 0.7786 2.1515 -0.2539 0.0442 4.3805 -1.9918 1.9520 1.4123 -0.3138 1.4963 -0.2879 1.3414 -2.4443 -7.1793 0.3385 -3.9099 20.6210 -18.6036 16.4029 -6.3608 -38.0074 19.8806 -0.0000 0.0001 56.0825 4.1483 17.3293 -8.4695 -0.0000 0.0000 -0.0000 -0.0000 -0.0000 -0.0000 18.3405 10.7545 -13.4451 20.3180 42.9963 -29.1423 -0.0000 -0.0000 -40.6780 -15.5767 -13.9354 1.4371 0.0000 0.0000 -0.0000 0.0000 0.0000 0.0000 -1.7760 10.1480 -15.4401 46.4138 0.0000 0.0000 -12.2934 -16.5290 -13.9083 -17.4025 0.0000 -0.0000 -25.0389 -4.0666 2.0971 24.9866 0.0000 0.0000 2.2646 8.6753 13.2773 -3.2537 0.0000 -0.0000
 20.2290 0.8102 36.5667 1.6309 1.7222 -88.1700 4.7026 -2.4722 0.8443 2.1855 -0.2622 0.0326 4.4114 -1.8758 2.0149 1.4501 -0.2917 1.4709 -0.1122 1.5317 -2.2976 -7.0445 0.4256 -3.8864 20.4293 -18.4476 16.3905 -6.4875 -37.9198 19.7218 -0.0000 0.0001 56.4579 4.0743 18.2376 -8.4774 -0.0000 0.0000 -0.0000 0.0000 -0.0000 -0.0000 18.1482 10.8222 -13.4842 19.5198 43.1607 -28.7853 -0.0000 -0.0000 -41.5655 -15.7077 -14.0852 1.1927 -0.0000 -0.0000 -0.0000 0.0000 0.0000 0.0000 -1.4412 9.5519 -15.0927 45.0644 0.0000 0.0000 -13.4258 -16.8572 -14.0795 -18.6203 0.0000 -0.0000 -25.3963 -4.2883 2.1358 24.3853 0.0000 0.0000 3.1357 8.9095 12.9393 -3.3745 0.0000 -0.0000
 20.5396 0.8724 36.5257 1.7439 1.5401 -88.1682 4.8151 -2.8053 0.9138 2.2363 -0.2498 0.0268 4.4498 -1.7921 2.0595 1.4920 -0.2554 1.4350 0.0242 1.7454 -2.1434 -6.8976 0.5078 -3.8697 20.2192 -18.2987 16.4248 -6.6262 -37.7886 19.5715 -0.0000 0.0001 56.7945 3.9705 19.0782 -8.4286 0.0000 0.0000 -0.0000 0.0000 0.0000 0.0000 17.9483 10.9125 -13.5376 18.6672 43.2985 -28.4108 -0.0000 -0.0000 -42.4816 -15.8028 -14.2576 0.9431 0.0000 -0.0000 0.0000 -0.0000 0.0000 0.0000 -1.2193 8.9476 -14.8681 43.7333 0.0000 0.0000 -14.7354 -16.9647 -14.5042 -19.2483 0.0000 -0.0000 -25.7510 -4.5407 2.2631 23.6311 0.0000 0.0000 4.1925 9.0763 12.4548 -3.4410 0.0000 -0.0000
 20.8657 0.9386 36.4893 1.9066 1.3518 -88.1180 4.9717 -3.1966 0.9741 2.2889 -0.2360 0.0205 4.4987 -1.7088 2.0889 1.5355 -0.2179 1.3991 0.1253 1.9793 -1.9860 -6.7358 0.5838 -3.8597 20.0181 -18.1569 16.5140 -6.7964 -37.6030 19.4321 -0.0000 0.0001 57.0858 3.8205 19.8530 -8.3279 -0.0000 0.0000 -0.0000 0.0000 -0.0000 -0.0000 17.7494 11.0191 -13.6172 17.7528 43.4148 -28.0159 -0.0000 -0.0000 -43.4190 -15.8845 -14.4571 0.6794 0.0000 -0.0000 -0.0000 0.0000 0.0000 0.0000 -1.0878 8.3069 -14.8053 42.4379 0.0000 0.0000 -16.1566 -16.8117 -15.1431 -19.2282 0.0000 -0.0000 -26.0819 -4.8483 2.4713 22.7266 0.0000 0.0000 5.4358 9.2100 11.8148 -3.4602 0.0000 -0.0000
